<svg width="110" height="35" viewBox="0 0 110 35" fill="none" xmlns="http://www.w3.org/2000/svg">
<path d="M50.812 8.84064V17.5721H49.107V11.9091L46.6553 15.963H46.4562L44.0045 11.9216V17.5721H42.2871V8.84064H44.0543L46.5558 12.9694L49.0448 8.84064H50.812Z" fill="#131411"/>
<path d="M58.0355 17.5721L57.5128 16.0004H54.0407L53.518 17.5721H51.6636L54.7127 8.84064H56.8408L59.9023 17.5721H58.0355ZM54.5882 14.3913H56.9777L55.783 10.8239L54.5882 14.3913Z" fill="#131411"/>
<path d="M65.5271 17.5721L63.7723 14.541H62.4656V17.5721H60.7482V8.84064H64.2328C65.0376 8.84064 65.7221 9.12338 66.2863 9.68884C66.8504 10.2543 67.1325 10.9362 67.1325 11.7345C67.1325 12.275 66.979 12.7781 66.6721 13.2438C66.3651 13.7011 65.9585 14.0462 65.4524 14.2791L67.3814 17.5721H65.5271ZM62.4656 10.4497V13.0317H64.2328C64.5564 13.0317 64.8343 12.907 65.0666 12.6575C65.299 12.3997 65.4151 12.0921 65.4151 11.7345C65.4151 11.3769 65.299 11.0734 65.0666 10.8239C64.8343 10.5745 64.5564 10.4497 64.2328 10.4497H62.4656Z" fill="#131411"/>
<path d="M75.2002 17.5721H73.2214L70.1101 13.4808V17.5721H68.3927V8.84064H70.1101V12.6949L73.097 8.84064H75.0757L71.8524 13.0816L75.2002 17.5721Z" fill="#131411"/>
<path d="M77.7668 15.9256H81.4381V17.5721H76.0494V8.84064H81.3759V10.4871H77.7668V12.3457H81.0648V13.9672H77.7668V15.9256Z" fill="#131411"/>
<path d="M88.4108 8.84064V10.4871H86.0586V17.5721H84.3412V10.4871H82.0015V8.84064H88.4108Z" fill="#131411"/>
<path d="M89.3695 8.84064H91.087V17.5721H89.3695V8.84064Z" fill="#131411"/>
<path d="M97.7398 8.84064H99.4573V17.5721H98.1505L94.417 12.2334V17.5721H92.6996V8.84064H94.0063L97.7398 14.1668V8.84064Z" fill="#131411"/>
<path d="M109.623 12.882V13.5556C109.623 14.803 109.225 15.8133 108.428 16.5867C107.632 17.36 106.603 17.7467 105.342 17.7467C103.998 17.7467 102.882 17.3101 101.994 16.437C101.115 15.5555 100.675 14.4828 100.675 13.2188C100.675 11.9465 101.111 10.8697 101.982 9.9882C102.861 9.10674 103.948 8.66602 105.242 8.66602C106.055 8.66602 106.798 8.85312 107.47 9.22732C108.142 9.59321 108.665 10.0838 109.038 10.6992L107.57 11.5474C107.362 11.1898 107.047 10.8988 106.624 10.6742C106.209 10.4497 105.744 10.3375 105.23 10.3375C104.4 10.3375 103.716 10.6119 103.177 11.1607C102.646 11.7012 102.38 12.3873 102.38 13.2188C102.38 14.0421 102.65 14.724 103.189 15.2645C103.737 15.7967 104.458 16.0628 105.354 16.0628C106.018 16.0628 106.566 15.9172 106.997 15.6262C107.437 15.3268 107.736 14.9194 107.893 14.4038H105.255V12.882H109.623Z" fill="#131411"/>
<path d="M47.4892 21.8266H44.0045V23.8972H47.3896V25.5437H44.0045V28.9116H42.2871V20.1801H47.4892V21.8266Z" fill="#131411"/>
<path d="M48.7406 20.1801H50.458V28.9116H48.7406V20.1801Z" fill="#131411"/>
<path d="M58.7039 28.9116H56.75L55.0575 26.0676L53.3649 28.9116H51.4235L54.0867 24.4336L51.5604 20.1801H53.5018L55.0575 22.7996L56.6131 20.1801H58.5545L56.0282 24.4211L58.7039 28.9116Z" fill="#131411"/>
<path d="M4.07295 30.1722V22.6881L10.4086 26.4301L4.07295 30.1722Z" fill="#131411"/>
<path d="M23.7589 26.0899V18.6059L30.0946 22.3479L23.7589 26.0899Z" fill="#131411"/>
<path d="M4.07295 22.0077V14.5236L10.4086 18.2657L4.07295 22.0077Z" fill="#131411"/>
<path d="M17.1969 22.0077V14.5236L23.5326 18.2657L17.1969 22.0077Z" fill="#131411"/>
<path d="M23.7589 17.9255V10.4414L30.0946 14.1835L23.7589 17.9255Z" fill="#131411"/>
<path d="M4.07295 13.8433V6.3592L10.4086 10.1012L4.07295 13.8433Z" fill="#131411"/>
<path d="M10.6349 17.9255V10.4414L16.9706 14.1835L10.6349 17.9255Z" fill="#131411"/>
<path d="M10.4086 26.0899V18.6059L4.07295 22.3479L10.4086 26.0899Z" fill="#131411"/>
<path d="M30.0946 30.1722V22.6881L23.7589 26.4301L30.0946 30.1722Z" fill="#131411"/>
<path d="M16.9706 22.0077V14.5236L10.6349 18.2657L16.9706 22.0077Z" fill="#131411"/>
<path d="M23.5326 17.9255V10.4414L17.1969 14.1835L23.5326 17.9255Z" fill="#131411"/>
<path d="M30.0946 13.8433V6.3592L23.7589 10.1012L30.0946 13.8433Z" fill="#131411"/>
<path d="M30.0946 22.0077V14.5236L23.7589 18.2657L30.0946 22.0077Z" fill="#131411"/>
<path d="M10.4086 17.9255V10.4414L4.07295 14.1835L10.4086 17.9255Z" fill="#131411"/>
<path fill-rule="evenodd" clip-rule="evenodd" d="M33.9412 0.689453H0V34.708H33.9412V0.689453ZM32.8099 1.8234H1.13137V33.574H32.8099V1.8234Z" fill="#131411"/>
</svg>
