<svg width="86" height="86" viewBox="0 0 86 86" fill="none" xmlns="http://www.w3.org/2000/svg">
<g opacity="0.6">
<path d="M15.5 18.7945H39.6071V46.1582C39.6082 49.1523 39.0894 52.1173 38.0803 54.8838C37.0712 57.6503 35.5916 60.1642 33.7261 62.2818C31.8605 64.3993 29.6455 66.0792 27.2076 67.2252C24.7697 68.3713 22.1567 68.9612 19.5179 68.9612V59.9137C22.7318 59.9112 25.8133 58.4609 28.0851 55.8815C30.3569 53.3021 31.6331 49.8047 31.6331 46.1582H15.5V18.7945Z" fill="#D9D9D9"/>
<path d="M46.6429 18.7945H70.75V46.1582C70.75 52.2059 68.6335 58.0059 64.866 62.2823C61.0985 66.5587 55.9887 68.9612 50.6607 68.9612V59.9137C52.2528 59.915 53.8296 59.5601 55.3008 58.8694C56.7721 58.1786 58.109 57.1656 59.2352 55.8881C60.3614 54.6107 61.2548 53.0939 61.8643 51.4244C62.4738 49.7548 62.7876 47.9654 62.7876 46.1582H46.6429V18.7945Z" fill="#D9D9D9"/>
</g>
</svg>
